<?xml version="1.0" standalone="no"?>
<!DOCTYPE svg PUBLIC "-//W3C//DTD SVG 20010904//EN"
 "http://www.w3.org/TR/2001/REC-SVG-20010904/DTD/svg10.dtd">
<svg version="1.0" xmlns="http://www.w3.org/2000/svg"
 width="507.000000pt" height="429.000000pt" viewBox="0 0 507.000000 429.000000"
 preserveAspectRatio="xMidYMid meet">

<g transform="translate(0.000000,429.000000) scale(0.100000,-0.100000)"
fill="#000000" stroke="none">
<path d="M2724 4275 c-4 -9 -1 -29 6 -46 19 -44 5 -47 -33 -5 -32 35 -36 36
-104 36 -78 0 -87 -5 -97 -62 -4 -21 -12 -38 -17 -38 -6 0 -30 12 -54 26 -56
32 -74 27 -119 -36 -38 -54 -56 -59 -114 -39 -27 9 -37 8 -64 -10 -18 -11 -46
-36 -61 -56 -35 -44 -58 -45 -137 -5 -83 42 -113 40 -160 -11 -37 -40 -37 -41
-76 -29 -65 19 -86 11 -116 -45 -15 -27 -29 -54 -31 -59 -2 -5 -22 -2 -46 7
-54 22 -71 13 -105 -58 -14 -31 -26 -58 -26 -61 0 -14 -43 -64 -55 -64 -8 0
-35 18 -60 40 -25 22 -55 40 -66 40 -29 0 -44 -41 -30 -81 19 -55 14 -77 -17
-84 -16 -3 -49 -1 -73 4 -59 14 -65 14 -83 -5 -11 -10 -16 -34 -16 -69 0 -90
-12 -100 -85 -69 -21 8 -43 13 -50 10 -8 -3 -16 -29 -20 -63 -3 -32 -9 -70
-11 -86 -8 -38 -43 -45 -87 -18 -73 45 -127 17 -127 -67 0 -80 -33 -102 -102
-66 -30 15 -32 15 -45 -2 -18 -24 -16 -111 3 -189 15 -60 15 -67 0 -90 -10
-15 -32 -28 -58 -35 -73 -18 -73 -18 -70 -109 2 -44 0 -81 -4 -81 -4 0 -24 16
-45 35 -24 21 -49 35 -65 35 l-27 0 7 -67 c4 -38 8 -77 9 -88 2 -18 -4 -20
-76 -20 l-77 0 0 -39 c0 -55 47 -100 123 -116 49 -10 57 -14 57 -34 0 -25 -35
-76 -52 -76 -5 0 -25 -7 -44 -16 -59 -28 -56 -75 8 -101 30 -12 38 -20 36 -36
-3 -20 -8 -22 -90 -41 -35 -8 -37 -41 -8 -105 11 -24 20 -47 20 -51 0 -5 -19
-15 -42 -23 l-43 -14 3 -55 c4 -83 15 -112 41 -116 20 -3 21 -1 12 17 -31 57
4 101 79 101 l51 0 -6 33 c-6 29 -2 38 24 65 25 25 31 39 31 76 0 62 14 93 52
116 72 44 95 15 49 -60 -35 -57 -38 -78 -15 -122 16 -31 16 -32 -10 -51 -14
-10 -26 -25 -26 -32 0 -8 16 -43 35 -78 41 -74 41 -77 16 -77 -34 0 -80 -22
-86 -41 -11 -35 24 -131 61 -166 33 -31 34 -34 34 -106 0 -84 -5 -90 -64 -80
-42 7 -47 -6 -13 -37 17 -17 30 -21 60 -17 59 8 77 30 77 94 0 46 3 53 19 53
11 0 28 -10 38 -23 29 -37 40 -39 72 -11 36 30 37 29 15 -15 -11 -21 -14 -44
-10 -66 l7 -34 -33 10 c-45 12 -54 12 -73 -7 -22 -22 -10 -52 34 -90 31 -27
34 -33 22 -48 -9 -11 -29 -16 -62 -16 -55 0 -61 -9 -23 -39 34 -27 88 -27 114
-1 22 22 24 45 11 103 -10 43 -9 44 29 17 l29 -20 16 22 16 23 19 -25 c27 -35
25 -43 -20 -95 -22 -25 -40 -55 -40 -66 0 -25 18 -61 36 -72 7 -4 18 -25 24
-46 7 -29 18 -42 40 -51 29 -12 30 -14 24 -65 -7 -59 -1 -67 69 -80 21 -4 37
-13 37 -21 0 -19 21 -28 31 -13 14 22 12 25 -36 73 -43 41 -45 47 -39 84 5 34
2 44 -23 73 -29 32 -53 71 -53 83 0 3 15 6 33 6 38 0 67 -26 116 -105 l30 -50
-40 -17 c-49 -21 -49 -45 -2 -69 51 -25 64 -40 61 -67 -3 -28 -16 -36 -73 -49
-31 -6 -41 -13 -43 -31 -6 -40 76 -152 111 -152 18 0 18 1 -2 34 -36 57 -31
65 47 81 35 7 52 34 52 81 0 13 5 24 10 24 12 0 12 -20 1 -79 -11 -55 0 -87
34 -103 24 -11 28 -8 56 25 46 56 63 48 34 -15 -29 -62 -30 -71 -9 -92 23 -24
67 -19 99 10 28 26 28 22 8 112 -5 18 -1 22 21 22 25 0 26 -2 26 -63 0 -49 4
-68 18 -80 24 -22 43 -21 92 4 23 12 43 19 47 16 3 -3 -4 -21 -16 -40 -18 -29
-19 -36 -6 -41 9 -3 26 9 47 35 27 33 33 37 41 23 6 -11 3 -22 -11 -37 -29
-33 -32 -52 -18 -102 14 -46 9 -57 -15 -29 -11 14 -61 44 -73 44 -13 0 -17
-67 -6 -107 15 -52 5 -72 -29 -54 -18 10 -21 9 -21 -7 0 -26 34 -54 61 -50 17
2 27 14 38 43 8 22 15 41 16 43 1 1 23 -7 49 -18 58 -24 59 -24 52 -2 -2 9 -7
48 -11 85 -7 68 -6 69 17 65 19 -2 22 -8 20 -33 -7 -68 39 -115 77 -80 17 15
19 15 25 0 3 -9 6 -32 6 -50 0 -43 22 -65 64 -65 32 0 86 32 86 50 0 5 -13 7
-29 4 -24 -5 -30 -2 -36 16 -5 16 0 27 20 46 l27 25 -21 31 -20 32 35 38 c39
43 40 51 18 104 -21 50 -20 98 1 131 l17 26 24 -71 c17 -54 22 -84 17 -121 -6
-50 -5 -50 30 -67 20 -10 39 -24 42 -31 5 -15 -41 -123 -53 -123 -4 0 -15 -7
-25 -14 -24 -19 -12 -48 17 -40 17 4 27 -1 40 -20 9 -14 25 -26 36 -26 27 0
25 -22 -3 -48 -28 -26 -40 -27 -72 -6 -27 18 -33 7 -15 -27 8 -14 21 -19 54
-19 51 0 69 16 97 89 25 68 24 95 -6 119 -14 11 -25 24 -25 29 0 4 20 20 45
35 56 34 58 56 5 98 -22 17 -40 37 -40 44 0 7 21 22 46 34 49 24 49 24 22 90
-14 36 -13 37 38 68 16 9 17 14 4 44 -13 32 -13 33 18 59 49 39 45 85 -18 207
-53 104 -60 134 -34 154 24 21 66 98 59 110 -3 5 -21 17 -38 26 -18 9 -42 26
-55 37 -22 20 -22 26 -16 118 l7 97 -56 36 c-58 38 -61 43 -72 118 -4 29 -16
60 -31 77 -36 43 -31 52 21 37 25 -8 45 -10 45 -6 0 5 -23 28 -51 52 l-51 44
18 51 18 51 -32 36 c-18 20 -32 40 -32 44 1 13 28 117 35 134 15 38 143 100
298 144 84 24 159 47 167 51 8 4 -75 10 -185 13 -183 5 -204 7 -253 29 -41 19
-50 26 -38 33 19 10 194 63 259 78 62 13 128 -3 174 -43 18 -16 36 -27 39 -24
12 12 -30 57 -72 76 -72 34 -145 28 -304 -24 -73 -24 -135 -43 -137 -41 -2 2
12 29 32 61 50 83 47 98 -21 126 l-57 23 29 23 c52 42 131 76 161 69 16 -4 90
-32 166 -62 163 -65 212 -70 212 -19 0 25 -9 36 -55 67 -30 20 -90 49 -134 64
-68 23 -95 28 -173 26 -85 -1 -93 0 -93 17 0 12 10 21 25 25 24 6 25 10 25 76
0 63 2 70 20 70 24 0 25 -7 5 -54 l-15 -36 29 0 c46 0 54 18 46 113 -6 69 -4
85 9 96 22 19 36 5 36 -38 0 -71 37 -79 110 -23 59 45 63 62 15 62 -19 0 -35
5 -35 10 0 6 15 10 33 10 40 0 50 7 66 48 31 75 121 87 121 16 0 -8 -16 -32
-36 -54 l-36 -40 32 0 c20 0 38 8 50 23 11 12 30 35 43 51 32 39 59 29 82 -30
9 -25 24 -48 31 -51 8 -3 21 -18 30 -34 17 -34 31 -36 85 -9 70 36 114 -1 59
-51 -36 -33 -40 -54 -7 -45 66 19 75 19 82 -4 5 -16 2 -26 -9 -32 -9 -5 -22
-22 -30 -37 -14 -25 -13 -29 6 -49 l21 -21 -33 -28 c-18 -15 -36 -30 -40 -33
-19 -15 -40 -58 -40 -82 0 -53 51 -36 214 71 61 39 113 71 117 71 4 0 5 -8 3
-18 -3 -10 7 -29 25 -46 29 -28 30 -30 14 -49 -17 -18 -16 -21 5 -58 l23 -39
-69 0 c-117 0 -218 -44 -262 -115 -35 -56 -22 -62 28 -11 78 81 172 108 302
86 73 -12 100 -28 100 -59 0 -24 -74 -45 -283 -81 -170 -30 -208 -45 -136 -54
117 -15 338 -28 385 -22 51 6 52 6 57 -23 5 -21 23 -42 62 -71 65 -48 71 -74
25 -108 -23 -17 -30 -31 -30 -55 0 -34 25 -222 36 -269 4 -17 1 -37 -8 -50
-12 -18 -15 -57 -14 -170 1 -142 0 -147 -20 -152 -12 -3 -25 -17 -28 -30 -7
-28 -37 -53 -116 -99 -30 -18 -61 -44 -69 -59 -14 -25 -14 -29 7 -51 32 -33
27 -48 -26 -82 -26 -16 -53 -43 -62 -58 -14 -26 -14 -29 4 -43 11 -8 32 -14
47 -14 14 0 32 -7 39 -15 20 -24 -1 -59 -59 -100 -70 -51 -75 -81 -22 -129 28
-25 27 -29 -14 -70 -41 -41 -43 -59 -15 -150 18 -56 24 -66 43 -66 12 0 33 7
45 16 37 26 36 10 -2 -63 -50 -93 -48 -114 6 -94 13 4 35 11 50 15 26 6 27 5
30 -41 2 -36 7 -49 20 -51 15 -3 17 2 12 26 -5 22 -2 31 12 36 20 8 35 -7 66
-63 12 -22 24 -31 43 -31 36 0 48 37 35 108 -13 71 -13 72 5 72 21 0 31 -25
45 -110 16 -100 30 -122 78 -118 38 3 43 9 57 80 4 20 13 28 37 33 47 10 58
23 58 66 0 35 -5 42 -49 74 -27 20 -52 43 -55 52 -8 19 17 48 53 66 18 8 27
21 29 42 7 86 12 96 40 93 24 -3 27 -7 26 -38 0 -19 -4 -52 -8 -72 -8 -38 -8
-38 25 -38 21 0 51 12 79 30 32 21 46 26 52 17 15 -23 8 -52 -22 -97 -43 -65
-40 -87 14 -111 40 -17 45 -23 48 -57 4 -54 30 -54 57 1 27 56 26 68 -4 97
-14 13 -25 31 -25 41 0 15 27 88 36 98 2 2 17 -10 33 -28 20 -21 38 -31 58
-31 40 0 53 -17 53 -67 0 -31 4 -43 14 -43 23 0 45 28 52 68 4 20 12 44 19 52
7 8 15 40 19 70 3 30 9 71 12 91 5 31 1 41 -25 71 -38 44 -39 58 -3 58 19 0
39 -11 62 -35 30 -31 38 -34 72 -29 34 6 38 4 38 -15 0 -16 -6 -21 -27 -21
-25 0 -26 0 -8 -20 20 -22 64 -27 83 -8 18 18 15 46 -9 79 -25 35 -25 38 -5
169 9 58 16 109 16 113 0 4 9 3 21 -3 16 -9 20 -19 18 -52 -3 -33 1 -44 22
-62 24 -21 25 -25 12 -49 -12 -25 -12 -27 5 -27 46 0 53 40 22 127 -11 32 -20
73 -20 93 0 19 -7 44 -15 54 -16 21 -20 56 -7 56 5 0 20 -13 35 -28 21 -22 27
-38 27 -75 0 -45 1 -47 29 -47 43 0 81 17 81 36 0 13 -6 15 -30 10 l-31 -6 7
63 c6 58 4 64 -20 86 -14 14 -26 29 -26 34 0 6 20 32 45 58 25 26 45 55 45 64
0 18 1 18 -44 0 -44 -18 -52 -15 -61 26 -8 34 8 61 31 52 8 -3 25 -2 39 1 21
5 25 12 25 47 0 36 3 41 33 54 17 7 33 12 35 11 1 -2 -5 -22 -13 -46 -21 -59
-20 -65 19 -77 l34 -11 -5 35 c-8 51 14 61 44 20 l23 -32 -22 -16 c-22 -17
-22 -18 -5 -54 18 -38 37 -51 63 -41 15 6 15 8 -1 26 -21 23 -21 22 20 36 35
11 75 74 75 118 0 21 -11 40 -40 67 -40 38 -40 38 -18 50 60 31 106 99 56 83
-48 -16 -63 -11 -63 21 0 23 6 32 30 43 58 25 60 28 57 70 -1 25 3 44 13 52
12 10 13 5 8 -37 -5 -45 -3 -52 22 -71 l27 -21 -26 -34 c-46 -60 -30 -87 54
-87 62 0 86 -11 77 -34 -7 -18 6 -21 34 -6 23 13 25 52 4 70 -8 7 -38 18 -67
24 l-53 13 56 25 c86 39 86 78 0 78 -57 0 -74 10 -69 41 2 18 13 26 47 36 57
16 71 29 71 64 0 29 0 29 -65 29 -54 0 -66 3 -75 20 -15 28 16 56 71 65 68 10
79 15 79 34 0 25 -17 38 -73 51 -53 14 -61 21 -52 50 9 27 27 25 64 -6 23 -19
35 -23 47 -16 9 5 26 7 37 4 19 -5 20 -2 13 39 -4 24 -10 60 -13 79 -7 45 -16
56 -53 64 -39 7 -39 26 1 102 39 72 35 94 -15 94 -29 0 -40 -7 -67 -42 -18
-24 -36 -47 -40 -52 -12 -13 -49 72 -49 111 0 84 -36 107 -114 72 l-50 -22
-18 23 c-10 12 -16 25 -13 30 2 4 33 13 67 20 85 17 96 25 100 62 2 23 9 34
22 36 16 3 18 0 11 -25 -12 -46 -11 -57 8 -61 33 -7 49 5 37 28 -8 15 -7 27 5
50 14 28 14 32 0 46 -8 8 -15 32 -15 52 0 61 -63 132 -117 132 -29 0 -29 11 1
39 59 55 34 91 -81 116 -43 10 -82 21 -87 26 -5 4 3 21 18 39 37 44 34 73 -11
107 -20 15 -53 45 -74 66 -36 35 -42 37 -102 37 -72 0 -96 16 -100 65 -3 45
19 40 29 -6 5 -23 15 -44 22 -47 16 -5 15 80 -1 128 -10 30 -20 37 -79 60 -37
14 -87 42 -112 63 -25 20 -48 37 -53 37 -4 -1 -24 -14 -43 -30 -19 -17 -38
-30 -43 -30 -5 0 -36 20 -70 44 -34 24 -80 53 -103 64 -71 36 -88 75 -50 119
l25 28 39 -38 c35 -34 44 -38 85 -36 40 2 49 -1 67 -24 24 -30 35 -28 95 15
33 24 41 26 43 13 2 -9 -3 -24 -11 -33 -30 -35 -29 -42 3 -42 26 0 33 6 46 35
18 45 18 109 -1 125 -23 19 -64 3 -87 -35 -11 -19 -21 -35 -23 -35 -2 0 -16
20 -32 45 -31 50 -46 54 -112 30 -46 -16 -67 -12 -76 15 -10 31 -46 70 -64 70
-10 0 -28 -12 -42 -26 -50 -53 -78 -52 -79 3 0 15 -11 28 -31 38 -21 11 -38
33 -54 69 -28 64 -62 84 -96 57 l-23 -18 22 -7 c13 -4 22 -16 22 -27 0 -25
-22 -15 -64 30 -17 17 -38 31 -48 31 -10 0 -35 9 -56 20 -30 17 -48 19 -95 14
-43 -5 -69 -2 -102 11 -34 13 -52 14 -73 7 -21 -7 -38 -6 -61 4 -18 8 -53 14
-78 14 -44 0 -45 0 -38 -30 l6 -29 -66 34 c-71 37 -122 45 -131 20z m2034
-1397 c8 -10 21 -18 29 -18 9 0 13 -7 11 -17 -8 -37 -108 -5 -108 34 0 7 10
23 22 35 22 22 23 22 26 3 2 -11 11 -28 20 -37z m175 -545 c5 -7 21 -13 38
-13 28 0 29 -1 28 -47 l0 -48 -16 31 c-14 29 -18 31 -58 26 -37 -4 -45 -1 -55
18 -13 25 -1 71 28 103 16 19 17 18 22 -19 3 -22 9 -45 13 -51z m-4453 -653
c27 -27 42 -69 36 -96 -9 -34 -136 -73 -136 -42 0 7 -12 24 -26 39 l-25 27 42
13 c36 11 45 20 53 47 10 37 27 41 56 12z m4250 -174 c0 -7 -7 -19 -15 -26
-12 -10 -15 -9 -15 7 0 11 3 23 7 26 11 12 23 8 23 -7z m-2830 -725 c0 -27
-14 -70 -21 -65 -22 13 -29 43 -13 58 17 18 34 21 34 7z"/>
<path d="M2668 1983 c-9 -10 -19 -28 -22 -40 -7 -20 -4 -23 22 -23 33 0 62 27
62 58 0 28 -40 30 -62 5z"/>
<path d="M2440 1947 c0 -31 29 -57 63 -57 48 0 46 40 -4 65 -41 22 -59 19 -59
-8z"/>
<path d="M2652 1795 c-25 -12 -42 -13 -75 -5 -28 6 -56 6 -79 0 -46 -13 -144
-77 -188 -124 l-35 -37 30 -57 c61 -117 158 -183 277 -190 92 -6 155 17 216
76 48 47 172 212 172 229 0 5 -42 33 -92 63 -103 60 -165 72 -226 45z m160
-175 c-38 -32 -146 -60 -226 -59 -73 0 -141 17 -141 34 0 23 120 43 255 44
l135 0 -23 -19z"/>
</g>
</svg>
